<svg width="800" height="800" viewBox="0 0 800 800" fill="none" xmlns="http://www.w3.org/2000/svg">
<g clip-path="url(#clip0_26_631)">
<path d="M400 44.4444C368.072 44.5329 336.302 48.9433 305.556 57.5555L322.667 98.8888C389.126 81.292 459.533 86.09 522.99 112.54C586.448 138.991 639.418 185.618 673.705 245.208C707.991 304.798 721.682 374.026 712.658 442.181C703.633 510.335 672.398 573.616 623.785 622.229C575.172 670.842 511.891 702.077 443.737 711.102C375.582 720.126 306.354 706.435 246.764 672.149C187.175 637.862 140.547 584.891 114.096 521.434C87.6461 457.976 82.8481 387.57 100.445 321.111L59.1116 303.778C38.9407 375.533 41.8303 451.813 67.372 521.837C92.9136 591.86 139.816 652.086 201.449 694.003C263.083 735.919 336.331 757.406 410.841 755.427C485.351 753.448 557.355 728.103 616.677 682.974C675.998 637.845 719.637 575.214 741.425 503.933C763.214 432.652 762.05 356.327 738.099 285.743C714.147 215.16 668.619 153.889 607.95 110.589C547.28 67.2892 474.536 44.151 400 44.4444Z" fill="#EA4434"/>
<path d="M165.555 348.889C154.464 399.568 160.077 452.477 181.556 499.701C203.034 546.925 239.223 585.927 284.71 610.873C330.198 635.82 382.539 645.37 433.905 638.096C485.272 630.822 532.903 607.115 569.675 570.519C606.448 533.924 630.385 486.408 637.907 435.077C645.429 383.746 636.132 331.36 611.405 285.753C586.679 240.145 547.852 203.768 500.732 182.062C453.613 160.356 400.732 154.487 350 165.333L363.778 200C406.941 191.919 451.558 197.888 491.078 217.032C530.599 236.176 562.942 267.485 583.357 306.364C603.773 345.243 611.187 389.643 604.511 433.045C597.834 476.448 577.419 516.567 546.262 547.512C515.105 578.458 474.848 598.6 431.401 604.981C387.954 611.362 343.606 603.646 304.867 582.966C266.128 562.285 235.039 529.731 216.165 490.081C197.291 450.431 191.625 405.774 200 362.667L165.555 348.889Z" fill="#EA4434"/>
<path d="M400 490.889C377.724 490.559 356.35 482.04 339.955 466.957C323.56 451.873 313.293 431.282 311.111 409.111L274.889 394C274.889 396 274.889 398 274.889 400C274.89 425.065 282.341 449.564 296.295 470.385C310.248 491.207 330.075 507.412 353.258 516.942C376.44 526.471 401.932 528.896 426.496 523.908C451.059 518.921 473.586 506.745 491.215 488.928C508.845 471.11 520.781 448.456 525.508 423.841C530.236 399.226 527.541 373.761 517.765 350.681C507.99 327.601 491.576 307.946 470.608 294.214C449.64 280.482 425.063 273.291 400 273.556H394.666L409.555 311.111C431.766 314.479 451.928 325.993 466.117 343.41C480.305 360.827 487.504 382.901 486.312 405.334C485.119 427.767 475.621 448.953 459.666 464.768C443.712 480.583 422.442 489.894 400 490.889Z" fill="#EA4434"/>
<path d="M182.223 296.444C184.274 298.538 187.07 299.736 190 299.778H271.111L390.445 419.111C394.629 423.325 400.316 425.704 406.255 425.725C412.194 425.746 417.897 423.407 422.111 419.222C426.325 415.038 428.704 409.351 428.725 403.412C428.746 397.473 426.407 391.77 422.223 387.556L300.667 266.667V189.111C300.625 186.18 299.427 183.385 297.334 181.333L173.111 57.1111C171.558 55.5884 169.593 54.555 167.458 54.139C165.323 53.723 163.113 53.9426 161.102 54.7708C159.091 55.5989 157.367 56.999 156.144 58.7976C154.921 60.5962 154.253 62.7142 154.223 64.8889V153.778H66.667C64.4922 153.808 62.3743 154.476 60.5757 155.699C58.7771 156.922 57.3769 158.646 56.5488 160.657C55.7207 162.668 55.5011 164.878 55.9171 167.013C56.3331 169.148 57.3665 171.114 58.8892 172.667L182.223 296.444Z" fill="#EA4434"/>
</g>
<defs>
<clipPath id="clip0_26_631">
<rect width="800" height="800" fill="#ffffff00"/>
</clipPath>
</defs>
</svg>
