<svg width="800" height="800" viewBox="0 0 800 800" fill="none" xmlns="http://www.w3.org/2000/svg">
<g clip-path="url(#clip0_26_566)">
<path fill-rule="evenodd" clip-rule="evenodd" d="M266.823 329.412C283.012 329.412 290.023 335.906 301.647 346.636C315.341 359.2 334.07 376.471 368.941 376.471C394.07 376.471 410.635 367.294 423.059 357.459C420.612 420.188 369.223 470.588 305.882 470.588C247.765 470.588 199.623 428.094 190.212 372.612C209.13 366.918 221.741 355.765 231.435 346.777C243.2 335.953 250.306 329.412 266.823 329.412ZM800 -0.00488281V470.583H658.823V423.525H752.941V47.0543H47.0583V423.525H94.1171V470.583H0V-0.00404948L800 -0.00488281ZM305.882 188.236C367.717 188.236 418.023 236.377 422.635 297.083C415.388 301.93 408.988 307.154 403.482 312.236C391.906 322.965 384.988 329.412 368.941 329.412C352.423 329.412 345.318 322.871 333.553 312.048C320 299.53 301.365 282.353 266.823 282.353C231.953 282.353 213.223 299.624 199.53 312.189C195.388 316.001 191.812 319.06 188.235 321.695V305.883C188.235 241.036 240.988 188.236 305.882 188.236ZM613.27 297.601L484.047 642.165C393.459 651.577 282.965 652.424 217.976 628.707L201.788 672.942C298.73 708.33 457.977 693.083 513.177 689.506L516.141 690.635L516.659 689.271C516.941 689.271 517.459 689.224 517.788 689.224L504.518 725.506C502.683 730.636 498.447 734.306 492.988 735.53C444.047 746.777 377.553 752.942 305.882 752.942C234.306 752.942 161.459 739.342 94.1175 713.506V608C94.1175 576.471 115.2 548.518 145.459 539.906C197.082 525.177 250.212 517.506 304.706 517.553C305.083 517.553 305.459 517.647 305.882 517.647C306.117 517.647 306.306 517.6 306.541 517.6C359.153 517.788 412.988 525.083 468 540.377L483.435 495.953L477.318 494.024C455.012 487.859 432.423 483.341 409.883 479.577C446.588 449.365 470.588 404.141 470.588 352.941V305.883C470.588 215.059 396.706 141.177 305.882 141.177C215.059 141.177 141.177 215.059 141.177 305.883V352.941C141.177 404.047 165.082 449.223 201.741 479.483C178.4 483.341 155.247 488.188 132.565 494.635C82.2117 508.941 47.0588 555.577 47.0588 608V745.083L61.6 751.153C138.494 783.105 223.012 800 305.882 800C381.035 800 451.2 793.412 503.483 781.412C524.47 776.565 541.365 761.788 548.706 741.694L561.977 705.412C567.953 689.035 565.13 671.153 554.306 657.6C548.894 650.777 541.977 645.647 534.212 642.494L595.765 478.33L657.318 314.165L613.27 297.601Z" fill="#EA4434"/>
</g>
<defs>
<clipPath id="clip0_26_566">
<rect width="800" height="800" fill="#ffffff00"/>
</clipPath>
</defs>
</svg>
