<svg width="800" height="800" viewBox="0 0 800 800" fill="none" xmlns="http://www.w3.org/2000/svg">
<g clip-path="url(#clip0_26_568)">
<path d="M350 216.667L300 250L250 216.667V166.667L300 133.333L350 166.667V216.667Z" stroke="#EA4434" stroke-width="33.3333" stroke-miterlimit="10" stroke-linejoin="round"/>
<path d="M400 16.6667V50.0001" stroke="#EA4434" stroke-width="33.3333" stroke-miterlimit="10" stroke-linecap="round" stroke-linejoin="round"/>
<path d="M533.334 783.333H266.667L216.667 533.333L300 450H500L583.334 533.333L533.334 783.333Z" stroke="#EA4434" stroke-width="33.3333" stroke-miterlimit="10" stroke-linecap="round" stroke-linejoin="round"/>
<path d="M400 350V450" stroke="#EA4434" stroke-width="33.3333" stroke-miterlimit="10" stroke-linecap="round" stroke-linejoin="round"/>
<path d="M253.334 716.667H546.667" stroke="#EA4434" stroke-width="33.3333" stroke-miterlimit="10" stroke-linecap="round" stroke-linejoin="round"/>
<path d="M83.334 533.333L100.001 633.333L228.134 590.633" stroke="#EA4434" stroke-width="33.3333" stroke-miterlimit="10" stroke-linecap="round" stroke-linejoin="round"/>
<path d="M16.667 400V466.667L83.3337 533.333L150 466.667V400" stroke="#EA4434" stroke-width="33.3333" stroke-miterlimit="10" stroke-linecap="round" stroke-linejoin="round"/>
<path d="M533.334 350L683.334 200L533.334 50H266.667L116.667 200L266.667 350H533.334Z" stroke="#EA4434" stroke-width="33.3333" stroke-miterlimit="10" stroke-linecap="round" stroke-linejoin="round"/>
<path d="M450 216.667L500 250L550 216.667V166.667L500 133.333L450 166.667V216.667Z" stroke="#EA4434" stroke-width="33.3333" stroke-miterlimit="10" stroke-linejoin="round"/>
<path d="M716.667 533.333L700.001 633.333L571.867 590.633" stroke="#EA4434" stroke-width="33.3333" stroke-miterlimit="10" stroke-linecap="round" stroke-linejoin="round"/>
<path d="M783.333 400V466.667L716.667 533.333L650 466.667V400" stroke="#EA4434" stroke-width="33.3333" stroke-miterlimit="10" stroke-linecap="round" stroke-linejoin="round"/>
</g>
<defs>
<clipPath id="clip0_26_568">
<rect width="800" height="800" fill="#ffffff00"/>
</clipPath>
</defs>
</svg>
