<svg width="800" height="800" viewBox="0 0 800 800" fill="none" xmlns="http://www.w3.org/2000/svg">
<path d="M483.438 391.172L518.203 316.641H468.75L433.984 391.172H483.438ZM329.844 316.641L295.078 391.172H344.531L379.297 316.641H329.844ZM448.75 316.641H399.297L364.531 391.172H413.984L448.75 316.641ZM233.828 316.641V391.172H275.078L309.844 316.641H233.828ZM577.266 391.172V316.641H538.203L503.438 391.172H577.266Z" fill="#EA4434"/>
<path d="M405.547 654.141C342.734 626.953 297.265 582.969 267.109 538.906C250.781 533.437 235.078 527.578 220.078 521.562C226.406 533.437 233.515 545.312 241.406 556.719C269.297 597.266 319.297 652.5 399.062 685.234C401.172 686.094 403.359 686.562 405.547 686.562C407.734 686.562 409.922 686.172 412.031 685.312C470.078 661.406 512.343 625.703 541.797 592.344C528.75 591.719 515.312 590.703 501.64 589.375C475.781 614.688 443.906 637.578 405.547 654.141ZM696.328 432.188C690.547 427.031 683.906 421.797 676.406 416.641C661.172 405.937 642.656 395.234 621.484 384.922V223.047C621.484 213.516 613.828 205.781 604.453 205.781C554.062 205.547 508.906 192.031 470.156 165.625C440.078 145.156 423.906 123.516 419.609 117.344C416.406 112.734 411.172 109.922 405.547 109.922C400 109.922 394.687 112.656 391.484 117.266C387.187 123.438 370.937 145.078 340.859 165.547C302.031 191.953 256.797 205.469 206.484 205.703C197.109 205.781 189.453 213.516 189.453 222.969V295.313C179.765 295.938 170.625 296.797 162.031 297.969C142.734 300.547 126.328 304.453 112.968 309.609C90.3122 318.437 77.1091 330.781 73.6716 346.328C70.3904 361.172 76.4841 377.109 91.6404 393.828L91.7185 393.906C92.031 394.219 92.2654 394.531 92.5779 394.844C106.718 410 128.125 425.469 156.25 440.859C158.125 441.875 160.078 442.969 162.031 443.984C172.5 449.531 183.75 455 195.547 460.234C198.984 473.203 203.828 486.719 209.843 500.391C223.75 506.406 238.437 512.188 253.828 517.734C245.547 503.359 238.828 489.219 233.672 475.938C276.875 492.422 325.781 506.953 377.265 518.359C435.078 531.172 491.64 538.984 542.187 541.406C534.297 552.734 525.468 563.984 515.547 574.922C528.906 576.016 541.953 576.797 554.531 577.187C560.156 570.078 565.156 563.203 569.609 556.719C572.89 551.953 576.015 547.109 579.062 542.187C589.922 542.109 600.312 541.797 610.39 541.094C636.562 539.375 658.75 535.703 676.484 530.156C680.39 528.906 684.062 527.656 687.5 526.25C694.297 523.516 700.234 520.391 705.234 517.031C702.656 512.656 699.375 508.437 695.781 504.453C690.625 507.891 684.14 510.938 676.484 513.594C659.531 519.531 636.718 523.672 609.375 525.469C602.578 525.937 595.547 526.25 588.281 526.406C609.218 488.281 621.562 448.984 621.562 418.516V402.344C643.437 413.437 662.031 424.844 676.484 436.016C679.922 438.672 683.047 441.25 686.015 443.906C698.75 455.234 713.203 471.875 709.922 486.875C709.375 489.219 708.437 491.406 707.109 493.594C711.093 497.891 714.453 502.187 717.109 506.406C721.172 501.484 723.828 496.094 725.156 490.234C729.062 472.266 719.375 452.734 696.328 432.188ZM163.75 427.031C163.203 426.719 162.578 426.406 162.031 426.094C135.547 411.484 115.468 396.641 103.047 382.891C102.968 382.891 102.968 382.969 102.89 382.969C97.9685 377.969 94.7654 372.5 93.5935 370.391C89.2185 362.813 87.4997 355.859 88.906 349.609C92.656 332.5 119.375 319.687 162.031 313.672C170.547 312.5 179.687 311.562 189.453 310.937V418.594C189.453 425.625 190.156 433.203 191.406 441.094C181.718 436.484 172.422 431.797 163.75 427.031ZM590.312 418.594C590.312 443.359 578.203 484.141 552.187 526.172C500.312 524.375 441.25 516.484 380.703 503.047C325 490.703 272.422 474.766 227.109 456.563C222.812 441.875 220.703 428.828 220.703 418.594V236.641C271.875 234.062 318.125 218.906 358.515 191.406C380.156 176.719 395.703 161.172 405.625 149.844C415.468 161.172 431.015 176.641 452.578 191.406C492.89 218.906 539.14 234.062 590.312 236.641V418.594Z" fill="#EA4434"/>
<path d="M189.219 346.25C157.891 348.203 132.188 353.047 112.969 360.547C105.469 363.437 98.9844 366.797 93.5938 370.469C95.9375 374.531 99.1406 378.672 103.047 383.047C119.609 372.109 149.531 364.687 189.219 362.031V346.25Z" fill="#EA4434"/>
<path d="M93.5154 370.391C94.6872 372.5 97.9685 377.969 102.812 382.969C102.89 382.969 102.89 382.891 102.969 382.891C99.1404 378.594 95.9372 374.453 93.5154 370.391C93.5935 370.391 93.5935 370.391 93.5154 370.391ZM717.031 506.406C714.297 502.188 710.937 497.891 707.031 493.594C703.828 490.156 700.312 486.641 696.328 483.125C678.515 467.266 652.5 450.937 620.547 435.391C620.234 437.5 618.828 446.875 617.89 451.562C646.64 465.859 669.922 480.625 685.937 494.844C689.218 497.734 692.578 501.016 695.703 504.453C699.297 508.359 702.578 512.656 705.156 517.031C709.14 523.828 711.328 531.016 709.843 537.813C705.312 558.203 667.734 572.656 609.375 576.484C592.343 577.578 573.906 577.812 554.531 577.187C541.953 576.797 528.906 576.016 515.547 574.922C473.203 571.406 427.422 564.375 380.703 553.984C335.625 543.984 292.656 531.641 253.906 517.656C238.515 512.109 223.828 506.328 209.922 500.313C193.359 493.125 177.89 485.625 163.828 477.969C112.5 449.922 84.531 420.938 88.9841 400.547C89.531 398.203 90.4685 395.938 91.7966 393.828L91.7185 393.75C91.0154 393.047 86.5622 388.516 81.7185 381.016C77.656 385.938 74.9998 391.328 73.6716 397.187C70.3123 412.344 76.7185 428.672 92.656 445.703C106.797 460.859 128.203 476.328 156.328 491.719C175.39 502.109 196.875 512.187 220.234 521.562C235.156 527.578 250.859 533.359 267.265 538.906C301.64 550.469 338.75 560.781 377.344 569.297C420.156 578.75 462.265 585.547 501.718 589.375C515.468 590.703 528.906 591.719 541.875 592.344C553.359 592.891 564.453 593.203 575.234 593.203C587.422 593.203 599.218 592.813 610.39 592.109C642.343 590 668.281 585 687.5 577.266C709.14 568.516 721.797 556.406 725.156 541.25C727.578 530.156 724.843 518.516 717.031 506.406Z" fill="#EA4434"/>
<path d="M91.7187 393.828C91.7187 393.828 91.6406 393.828 91.6406 393.75C91.6406 393.75 91.7187 393.75 91.7187 393.828Z" fill="#EA4434"/>
</svg>
